<svg aria-hidden="true" class="octicon octicon-issue-closed" height="256" version="1.1" viewBox="0 0 10 16" width="256" xmlns="http://www.w3.org/2000/svg" xmlns:xlink="http://www.w3.org/1999/xlink">
    <path d="M 3.6 10 h 2 v 2 H 3.6 v -2 z m 2 -6 H 3.6 v 5 h 2 V 4 z m 1.5 1.5 l -1 1 L 8.6 9 l 4 -4.5 l -1 -1 L 8.6 7 l -1.5 -1.5 z M 4.6 13.7 C 1.4 13.7 -1.1 11.1 -1.1 8 c 0 -3.1 2.6 -5.7 5.7 -5.7 c 1.8 0 3.4 0.9 4.5 2.2 l 0.9 -0.9 C 8.7 1.9 6.7 1 4.6 1 C 0.7 1 -2.4 4.1 -2.4 8 s 3.1 7 7 7 s 7 -3.1 7 -7 l -1.5 1.5 c -0.7 2.4 -2.9 4.2 -5.5 4.2 v 0 z" fill-rule="evenodd"/>
</svg>