<svg aria-hidden="true" class="octicon octicon-issue-reopened" height="256" version="1.1" viewBox="0 0 10 16" width="256" xmlns="http://www.w3.org/2000/svg" xmlns:xlink="http://www.w3.org/1999/xlink">
    <path d="M 5.9 8.9 H 3.9 V 3.9 h 2 v 5 z m -2 3 h 2 v -2 H 3.9 v 2 z m 6.3 -2 H 7.9 l 1.5 1.5 c -1.1 1.3 -2.7 2.2 -4.5 2.2 C 1.7 13.6 -0.8 11 -0.8 7.9 c 0 -0.3 0 -0.7 0.1 -1 H -2 C -2.1 7.2 -2.1 7.5 -2.1 7.9 c 0 3.9 3.1 7 7 7 c 2.2 0 4.1 -1 5.4 -2.6 L 11.9 13.9 v -4 h -1.7 z M -0.5 5.9 H 1.9 L 0.4 4.4 C 1.4 3 3 2.2 4.9 2.2 c 3.1 0 5.7 2.6 5.7 5.7 c 0 0.3 0 0.7 -0.1 1 h 1.3 c 0.1 -0.3 0.1 -0.7 0.1 -1 c 0 -3.9 -3.1 -7 -7 -7 c -2.2 0 -4.1 1 -5.4 2.6 L -2.1 1.9 v 4 h 1.7 z" fill-rule="evenodd"/>
</svg>